<mxfile host="app.diagrams.net" modified="2021-04-26T05:51:17.128Z" agent="5.0 (Windows NT 10.0; Win64; x64) AppleWebKit/537.36 (KHTML, like Gecko) Chrome/79.0.3945.88 Safari/537.36" etag="DOQqK4m8ayKOI9cTHMwD" version="14.6.6" type="github">
  <diagram name="Page-1" id="c7488fd3-1785-93aa-aadb-54a6760d102a">
    <mxGraphModel dx="1038" dy="548" grid="1" gridSize="10" guides="1" tooltips="1" connect="1" arrows="1" fold="1" page="1" pageScale="1" pageWidth="1100" pageHeight="850" background="#ffffff" math="0" shadow="0">
      <root>
        <mxCell id="0" />
        <mxCell id="1" parent="0" />
        <mxCell id="vQC9IW_aOGiXOUibcGVV-1" value="&lt;font style=&quot;font-size: 28px&quot;&gt;客户端&lt;/font&gt;" style="rounded=1;whiteSpace=wrap;html=1;" parent="1" vertex="1">
          <mxGeometry x="310" y="20" width="180" height="60" as="geometry" />
        </mxCell>
        <mxCell id="vQC9IW_aOGiXOUibcGVV-2" value="" style="rounded=1;whiteSpace=wrap;html=1;shadow=0;glass=0;" parent="1" vertex="1">
          <mxGeometry x="110" y="110" width="580" height="510" as="geometry" />
        </mxCell>
        <mxCell id="vQC9IW_aOGiXOUibcGVV-3" value="&lt;font style=&quot;font-size: 28px&quot;&gt;server层&lt;/font&gt;" style="rounded=0;whiteSpace=wrap;html=1;strokeColor=#FFFFFF;" parent="1" vertex="1">
          <mxGeometry x="150" y="530" width="120" height="60" as="geometry" />
        </mxCell>
        <mxCell id="vQC9IW_aOGiXOUibcGVV-5" value="&lt;font style=&quot;font-size: 28px&quot;&gt;连接器&lt;/font&gt;" style="rounded=0;whiteSpace=wrap;html=1;strokeColor=#1A1A1A;" parent="1" vertex="1">
          <mxGeometry x="212.5" y="140" width="375" height="60" as="geometry" />
        </mxCell>
        <mxCell id="vQC9IW_aOGiXOUibcGVV-18" value="" style="edgeStyle=orthogonalEdgeStyle;rounded=0;orthogonalLoop=1;jettySize=auto;html=1;" parent="1" source="vQC9IW_aOGiXOUibcGVV-7" target="vQC9IW_aOGiXOUibcGVV-8" edge="1">
          <mxGeometry relative="1" as="geometry" />
        </mxCell>
        <mxCell id="vQC9IW_aOGiXOUibcGVV-7" value="&lt;font style=&quot;font-size: 28px&quot;&gt;分析器&lt;/font&gt;" style="rounded=0;whiteSpace=wrap;html=1;strokeColor=#1A1A1A;" parent="1" vertex="1">
          <mxGeometry x="450" y="260" width="140" height="60" as="geometry" />
        </mxCell>
        <mxCell id="vQC9IW_aOGiXOUibcGVV-19" value="" style="edgeStyle=orthogonalEdgeStyle;rounded=0;orthogonalLoop=1;jettySize=auto;html=1;" parent="1" source="vQC9IW_aOGiXOUibcGVV-8" target="vQC9IW_aOGiXOUibcGVV-12" edge="1">
          <mxGeometry relative="1" as="geometry" />
        </mxCell>
        <mxCell id="vQC9IW_aOGiXOUibcGVV-8" value="&lt;font style=&quot;font-size: 28px&quot;&gt;优化器&lt;/font&gt;" style="rounded=0;whiteSpace=wrap;html=1;strokeColor=#1A1A1A;" parent="1" vertex="1">
          <mxGeometry x="450" y="390" width="140" height="60" as="geometry" />
        </mxCell>
        <mxCell id="vQC9IW_aOGiXOUibcGVV-20" value="" style="edgeStyle=orthogonalEdgeStyle;rounded=0;orthogonalLoop=1;jettySize=auto;html=1;entryX=0.708;entryY=-0.014;entryDx=0;entryDy=0;entryPerimeter=0;" parent="1" source="vQC9IW_aOGiXOUibcGVV-12" target="vQC9IW_aOGiXOUibcGVV-13" edge="1">
          <mxGeometry relative="1" as="geometry">
            <mxPoint x="520" y="640" as="targetPoint" />
            <Array as="points">
              <mxPoint x="520" y="630" />
            </Array>
          </mxGeometry>
        </mxCell>
        <mxCell id="vQC9IW_aOGiXOUibcGVV-12" value="&lt;font style=&quot;font-size: 28px&quot;&gt;执行器&lt;/font&gt;" style="rounded=0;whiteSpace=wrap;html=1;strokeColor=#1A1A1A;" parent="1" vertex="1">
          <mxGeometry x="450" y="520" width="140" height="60" as="geometry" />
        </mxCell>
        <mxCell id="vQC9IW_aOGiXOUibcGVV-13" value="" style="rounded=1;whiteSpace=wrap;html=1;shadow=0;glass=0;strokeColor=#1A1A1A;" parent="1" vertex="1">
          <mxGeometry x="110" y="680" width="580" height="130" as="geometry" />
        </mxCell>
        <mxCell id="vQC9IW_aOGiXOUibcGVV-14" value="&lt;font style=&quot;font-size: 28px&quot;&gt;存储引擎&lt;/font&gt;" style="rounded=0;whiteSpace=wrap;html=1;shadow=0;glass=0;strokeColor=#FFFFFF;" parent="1" vertex="1">
          <mxGeometry x="140" y="740" width="120" height="60" as="geometry" />
        </mxCell>
        <mxCell id="vQC9IW_aOGiXOUibcGVV-15" value="&lt;font style=&quot;font-size: 28px&quot;&gt;innodb引擎&lt;/font&gt;" style="rounded=0;whiteSpace=wrap;html=1;shadow=0;glass=0;strokeColor=#1A1A1A;" parent="1" vertex="1">
          <mxGeometry x="310" y="715" width="160" height="60" as="geometry" />
        </mxCell>
        <mxCell id="vQC9IW_aOGiXOUibcGVV-16" value="" style="endArrow=classic;html=1;" parent="1" source="vQC9IW_aOGiXOUibcGVV-1" target="vQC9IW_aOGiXOUibcGVV-5" edge="1">
          <mxGeometry width="50" height="50" relative="1" as="geometry">
            <mxPoint x="380" y="100" as="sourcePoint" />
            <mxPoint x="430" y="50" as="targetPoint" />
          </mxGeometry>
        </mxCell>
        <mxCell id="vQC9IW_aOGiXOUibcGVV-17" value="" style="endArrow=classic;html=1;" parent="1" source="vQC9IW_aOGiXOUibcGVV-5" target="vQC9IW_aOGiXOUibcGVV-7" edge="1">
          <mxGeometry width="50" height="50" relative="1" as="geometry">
            <mxPoint x="520" y="199" as="sourcePoint" />
            <mxPoint x="550" y="240" as="targetPoint" />
          </mxGeometry>
        </mxCell>
        <mxCell id="vQC9IW_aOGiXOUibcGVV-22" value="&lt;span style=&quot;font-size: 28px&quot;&gt;缓存&lt;/span&gt;" style="rounded=0;whiteSpace=wrap;html=1;strokeColor=#1A1A1A;" parent="1" vertex="1">
          <mxGeometry x="212.5" y="260" width="140" height="60" as="geometry" />
        </mxCell>
        <mxCell id="vQC9IW_aOGiXOUibcGVV-23" value="" style="endArrow=classic;html=1;" parent="1" source="vQC9IW_aOGiXOUibcGVV-5" target="vQC9IW_aOGiXOUibcGVV-22" edge="1">
          <mxGeometry width="50" height="50" relative="1" as="geometry">
            <mxPoint x="260" y="210" as="sourcePoint" />
            <mxPoint x="310" y="160" as="targetPoint" />
          </mxGeometry>
        </mxCell>
      </root>
    </mxGraphModel>
  </diagram>
</mxfile>
